# xmcd
#
# Track frame offsets:
#	150
#	14030
#	31409
#	45628
#	60444
#	78055
#	92594
#	106698
#	117378
#	132157
#	151963
#	167591
#	181560
#	197643
#	214189
#	229197
#	242657
#	256908
#	272877
#	290327
#	303303
#
# Disc length: 4224 seconds
#
# Revision: 0
# Processed by: cddbd v1.5.2PL0 Copyright (c) Steve Scherf et al.
# Submitted via: dBpowerAMP V4.0
#
DISCID=10107e15
DTITLE=Santana e Said - Ta na cara
DYEAR=2009
DGENRE=Country
TTITLE0=Ta na cara
TTITLE1=Cade os cachaceiros
TTITLE2=Pra sempre amem
TTITLE3=Tem que soprar
TTITLE4=Briga de foice
TTITLE5=Pancanejo
TTITLE6=So vale se for com voce
TTITLE7=nois e caipira
TTITLE8=Aumenta o som e enche o copo
TTITLE9=Sonho de um caminhoneiro
TTITLE10=Raio de sol
TTITLE11=Eu e a mulherada
TTITLE12=Preciso de um beijo
TTITLE13=Amor de praia
TTITLE14=Ze do saco
TTITLE15=Nao sabo
TTITLE16=Nossa historia
TTITLE17=Furacao brega
TTITLE18=O que tem que se sera
TTITLE19=Ze do saco - forro
TTITLE20=Cade os cachaceiros - forro
EXTD=Ta na cara
EXTT0=
EXTT1=
EXTT2=
EXTT3=
EXTT4=
EXTT5=
EXTT6=
EXTT7=
EXTT8=
EXTT9=
EXTT10=
EXTT11=
EXTT12=
EXTT13=
EXTT14=
EXTT15=
EXTT16=
EXTT17=
EXTT18=
EXTT19=
EXTT20=
PLAYORDER=
